<svg xmlns="http://www.w3.org/2000/svg" width="24" height="24" viewBox="0 0 24 24">
  <g id="ic_setting_24px" transform="translate(-1570 -154)">
    <rect id="사각형_8249" data-name="사각형 8249" width="24" height="24" transform="translate(1570 154)" fill="#fff" opacity="0"/>
    <g id="그룹_27443" data-name="그룹 27443" transform="translate(1572 156)">
      <rect id="사각형_8240" data-name="사각형 8240" width="20" height="20" fill="none" opacity="0"/>
      <g id="settings-gear-svgrepo-com_1_" data-name="settings-gear-svgrepo-com (1)">
        <path id="합치기_1" data-name="합치기 1" d="M10,20H7.947l-.282-2.616A8.03,8.03,0,0,1,6.3,16.8L4.282,18.421l-2.8-2.808,1.648-2.051a7.842,7.842,0,0,1-.552-1.369L0,11.908.006,7.941l2.616-.285A7.7,7.7,0,0,1,3.2,6.3L1.582,4.277l2.808-2.8L6.44,3.125A7.947,7.947,0,0,1,7.8,2.577L8.079,0h3.967l.285,2.616a7.627,7.627,0,0,1,1.36.577l2.023-1.623L18.52,4.378,16.873,6.43a7.845,7.845,0,0,1,.55,1.367L20,8.079V12.05l-2.616.284a7.806,7.806,0,0,1-.579,1.357l1.621,2.023L15.618,18.52l-2.049-1.651a7.5,7.5,0,0,1-1.37.553L11.914,20ZM6.419,10A3.583,3.583,0,1,0,10,6.415,3.582,3.582,0,0,0,6.419,10Z" fill="none" stroke="#ddd" stroke-linejoin="round" stroke-width="1.3"/>
      </g>
    </g>
  </g>
</svg>
